# xmcd
#
# Track frame offsets: 
#        182
#        25147
#        48220
#        74295
#        105185
#        130157
#        154925
#        171932
#        202340
#
# Disc length: 3119 seconds
#
# Revision: 4
# Processed by: cddbd v1.5.2PL0 Copyright (c) Steve Scherf et al.
# Submitted via: ExactAudioCopy v1.2
#
DISCID=760c2d09
DTITLE=Dzem - Autsajder
DYEAR=1993
DGENRE=Rock/Blues
TTITLE0=A Jednak Czegos Zal
TTITLE1=Prokurator i Ja
TTITLE2=Noc i Rytm
TTITLE3=Autsajder
TTITLE4=Wieczny Pechowiec
TTITLE5=Plyn Moj Bluesie Plyn
TTITLE6=Piosenka Ekologiczna
TTITLE7=Cala w Trawie
TTITLE8=Obluda
EXTD=
EXTT0=
EXTT1=
EXTT2=
EXTT3=
EXTT4=
EXTT5=
EXTT6=
EXTT7=
EXTT8=
PLAYORDER=
